<?xml version="1.0" encoding="UTF-8" standalone="no"?>
<svg xmlns:dc="http://purl.org/dc/elements/1.1/" xmlns:cc="http://creativecommons.org/ns#" xmlns:rdf="http://www.w3.org/1999/02/22-rdf-syntax-ns#" xmlns:svg="http://www.w3.org/2000/svg" xmlns="http://www.w3.org/2000/svg" xmlns:sodipodi="http://sodipodi.sourceforge.net/DTD/sodipodi-0.dtd" xmlns:inkscape="http://www.inkscape.org/namespaces/inkscape" id="svg8" version="1.1" viewBox="0 0 16.933333 16.933333" height="64" width="64" sodipodi:docname="contentdroplets-bpmn-icon.svg" inkscape:version="0.92.5 (2060ec1f9f, 2020-04-08)">
  <sodipodi:namedview pagecolor="#ffffff" bordercolor="#666666" borderopacity="1" objecttolerance="10" gridtolerance="10" guidetolerance="10" inkscape:pageopacity="0" inkscape:pageshadow="2" inkscape:window-width="1920" inkscape:window-height="1009" id="namedview21" showgrid="false" inkscape:zoom="14.75" inkscape:cx="32.567393" inkscape:cy="24.531741" inkscape:window-x="0" inkscape:window-y="0" inkscape:window-maximized="1" inkscape:current-layer="layer1" />
  <defs id="defs2">
    <marker style="overflow:visible" id="marker1178" refX="0.0" refY="0.0" orient="auto">
      <path transform="scale(0.8) translate(12.5,0)" style="fill-rule:evenodd;stroke:black;stroke-width:1pt;stroke-opacity:1" d="M 0.0,0.0 L 5.0,-5.0 L -12.5,0.0 L 5.0,5.0 L 0.0,0.0 z " id="path1176" />
    </marker>
    <marker style="overflow:visible" id="Arrow1Lstart" refX="0.0" refY="0.0" orient="auto">
      <path transform="scale(0.8) translate(12.5,0)" style="fill-rule:evenodd;stroke:black;stroke-width:1pt;stroke-opacity:1" d="M 0.0,0.0 L 5.0,-5.0 L -12.5,0.0 L 5.0,5.0 L 0.0,0.0 z " id="path900" />
    </marker>
  </defs>
  <metadata id="metadata5">
    <rdf:RDF>
      <cc:Work rdf:about="">
        <dc:format>image/svg+xml</dc:format>
        <dc:type rdf:resource="http://purl.org/dc/dcmitype/StillImage" />
        <dc:title />
      </cc:Work>
    </rdf:RDF>
  </metadata>
  <g transform="translate(0,-280.06666)" id="layer1" style="fill:none;fill-opacity:1;stroke:#00897b;stroke-opacity:1">
    <path style="color:black;font-style:normal;font-variant:normal;font-weight:normal;font-stretch:normal;font-size:medium;line-height:normal;font-family:sans-serif;font-variant-ligatures:normal;font-variant-position:normal;font-variant-caps:normal;font-variant-numeric:normal;font-variant-alternates:normal;font-feature-settings:normal;text-indent:0;text-align:start;text-decoration:none;text-decoration-line:none;text-decoration-style:solid;text-decoration-color:black;letter-spacing:normal;word-spacing:normal;text-transform:none;writing-mode:lr-tb;direction:ltr;text-orientation:mixed;dominant-baseline:auto;baseline-shift:baseline;text-anchor:start;white-space:normal;shape-padding:0;clip-rule:nonzero;display:inline;overflow:visible;visibility:visible;opacity:1;isolation:auto;mix-blend-mode:normal;color-interpolation:sRGB;color-interpolation-filters:linearRGB;solid-color:black;solid-opacity:1;vector-effect:none;fill:#3e5389;fill-opacity:1;fill-rule:nonzero;stroke:none;stroke-width:3.01999998;stroke-linecap:round;stroke-linejoin:round;stroke-miterlimit:4;stroke-dasharray:none;stroke-dashoffset:74.26771545;stroke-opacity:1;paint-order:fill markers stroke;color-rendering:auto;image-rendering:auto;shape-rendering:auto;text-rendering:auto;enable-background:accumulate" d="M 29.150391 14.917969 C 27.785969 14.917969 26.640625 16.063325 26.640625 17.427734 L 26.640625 23.429688 C 26.640625 24.794135 27.785969 25.939453 29.150391 25.939453 L 30.945312 25.939453 L 30.945312 30.736328 L 13.65625 30.736328 A 1.2101211 1.2101211 0 0 0 13.464844 30.722656 A 1.2101211 1.2101211 0 0 0 13.179688 30.761719 A 1.21206 1.21206 0 0 0 12.269531 32.326172 L 12.269531 34.945312 A 1.2106299 1.2106299 0 0 0 14.689453 34.945312 L 14.689453 33.158203 L 30.841797 33.158203 L 30.841797 34.945312 A 1.2106299 1.2106299 0 1 0 33.263672 34.945312 L 33.263672 33.158203 L 49.546875 33.158203 L 49.546875 34.945312 A 1.2106299 1.2106299 0 0 0 51.96875 34.945312 L 51.96875 31.947266 A 1.2101211 1.2101211 0 0 0 51.96875 31.929688 A 1.2106205 1.2106205 0 0 0 51.966797 31.888672 A 1.2101211 1.2101211 0 0 0 50.742188 30.722656 A 1.2101211 1.2101211 0 0 0 50.587891 30.736328 L 33.365234 30.736328 L 33.365234 25.939453 L 35.152344 25.939453 C 36.516765 25.939453 37.662109 24.794135 37.662109 23.429688 L 37.662109 17.427734 C 37.662109 16.063325 36.516765 14.917969 35.152344 14.917969 L 29.150391 14.917969 z M 29.660156 17.9375 L 34.642578 17.9375 L 34.642578 22.919922 L 29.660156 22.919922 L 29.660156 17.9375 z M 10.578125 38.878906 C 9.2137038 38.878906 8.0683594 40.024262 8.0683594 41.388672 L 8.0683594 47.390625 C 8.0683594 48.755034 9.2137038 49.900391 10.578125 49.900391 L 16.580078 49.900391 C 17.944499 49.900391 19.089844 48.755034 19.089844 47.390625 L 19.089844 41.388672 C 19.089844 40.024262 17.944499 38.878906 16.580078 38.878906 L 10.578125 38.878906 z M 29.349609 38.878906 C 27.985188 38.878906 26.839844 40.024262 26.839844 41.388672 L 26.839844 47.390625 C 26.839844 48.755034 27.985188 49.900391 29.349609 49.900391 L 35.351562 49.900391 C 36.715984 49.900391 37.861328 48.755034 37.861328 47.390625 L 37.861328 41.388672 C 37.861328 40.024262 36.715984 38.878906 35.351562 38.878906 L 29.349609 38.878906 z M 47.828125 38.878906 C 46.463704 38.878906 45.318359 40.024262 45.318359 41.388672 L 45.318359 47.390625 C 45.318359 48.755034 46.463704 49.900391 47.828125 49.900391 L 53.828125 49.900391 C 55.192546 49.900391 56.337891 48.755034 56.337891 47.390625 L 56.337891 41.388672 C 56.337891 40.024262 55.192546 38.878906 53.828125 38.878906 L 47.828125 38.878906 z M 11.087891 41.898438 L 16.070312 41.898438 L 16.070312 46.875 L 11.087891 46.875 L 11.087891 41.898438 z M 29.867188 41.898438 L 34.841797 41.898438 L 34.841797 46.875 L 29.867188 46.875 L 29.867188 41.898438 z M 48.335938 41.898438 L 53.320312 41.898438 L 53.320312 46.875 L 48.335938 46.875 L 48.335938 41.898438 z " transform="matrix(0.26458333,0,0,0.26458333,0,280.06666)" id="rect815" />
    <path id="path886" d="M 2.4722431,287.8126 Z" style="fill:none;stroke:#00897b;stroke-width:0.26458332px;stroke-linecap:butt;stroke-linejoin:miter;stroke-opacity:1;fill-opacity:1" />
    <path inkscape:connector-curvature="0" style="color:black;font-style:normal;font-variant:normal;font-weight:normal;font-stretch:normal;font-size:medium;line-height:normal;font-family:sans-serif;font-variant-ligatures:normal;font-variant-position:normal;font-variant-caps:normal;font-variant-numeric:normal;font-variant-alternates:normal;font-feature-settings:normal;text-indent:0;text-align:start;text-decoration:none;text-decoration-line:none;text-decoration-style:solid;text-decoration-color:black;letter-spacing:normal;word-spacing:normal;text-transform:none;writing-mode:lr-tb;direction:ltr;text-orientation:mixed;dominant-baseline:auto;baseline-shift:baseline;text-anchor:start;white-space:normal;shape-padding:0;clip-rule:nonzero;display:inline;overflow:visible;visibility:visible;opacity:1;isolation:auto;mix-blend-mode:normal;color-interpolation:sRGB;color-interpolation-filters:linearRGB;solid-color:black;solid-opacity:1;vector-effect:none;fill:#747474;fill-opacity:1;fill-rule:nonzero;stroke:none;stroke-width:0.79904163;stroke-linecap:round;stroke-linejoin:round;stroke-miterlimit:4;stroke-dasharray:none;stroke-dashoffset:74.26771545;stroke-opacity:1;paint-order:fill markers stroke;color-rendering:auto;image-rendering:auto;shape-rendering:auto;text-rendering:auto;enable-background:accumulate" d="m 8.1876123,286.93024 v 1.26917 h -4.574397 c -0.01675,-0.003 -0.03368,-0.004 -0.05064,-0.004 -0.02547,4.2e-4 -0.0508,0.004 -0.07545,0.0103 -0.187864,0.0383 -0.30041,0.23171 -0.240813,0.41393 v 0.69298 c 0.01373,0.41289 0.62654,0.41289 0.640271,0 v -0.47284 h 4.273641 v 0.47284 c 0,0.42719 0.6407882,0.42719 0.6407882,0 v -0.47284 h 4.3082645 v 0.47284 c 0,0.42719 0.640788,0.42719 0.640788,0 v -0.79323 c 1.3e-5,-0.002 1.3e-5,-0.003 0,-0.005 -1.15e-4,-0.004 -2.92e-4,-0.007 -5.3e-4,-0.0109 -0.0063,-0.17375 -0.150156,-0.31071 -0.324011,-0.30851 -0.01368,4.6e-4 -0.02731,0.002 -0.04082,0.004 H 8.8278847 v -1.26917 z" id="rect815-5" sodipodi:nodetypes="ccccccccccssccsscccccccc" />
    <rect style="opacity:1;fill:white;fill-opacity:1;stroke:none;stroke-width:0.44979167;stroke-linecap:round;stroke-linejoin:round;stroke-miterlimit:4;stroke-dasharray:none;stroke-dashoffset:74.26771545;stroke-opacity:1;paint-order:fill markers stroke" id="rect859" width="1.3182657" height="1.31672" x="2.9336708" y="291.15228" />
    <rect style="opacity:1;fill:white;fill-opacity:1;stroke:none;stroke-width:0.44979167;stroke-linecap:round;stroke-linejoin:round;stroke-miterlimit:4;stroke-dasharray:none;stroke-dashoffset:74.26771545;stroke-opacity:1;paint-order:fill markers stroke" id="rect859-6" width="1.3182657" height="1.31672" x="7.9002929" y="291.15228" />
    <rect style="opacity:1;fill:white;fill-opacity:1;stroke:none;stroke-width:0.44979167;stroke-linecap:round;stroke-linejoin:round;stroke-miterlimit:4;stroke-dasharray:none;stroke-dashoffset:74.26771545;stroke-opacity:1;paint-order:fill markers stroke" id="rect859-6-7" width="1.3182657" height="1.31672" x="12.788883" y="291.15228" />
    <rect style="opacity:1;fill:white;fill-opacity:1;stroke:none;stroke-width:0.44979167;stroke-linecap:round;stroke-linejoin:round;stroke-miterlimit:4;stroke-dasharray:none;stroke-dashoffset:74.26771545;stroke-opacity:1;paint-order:fill markers stroke" id="rect859-6-7-5" width="1.3182657" height="1.31672" x="7.8475828" y="284.81262" />
  </g>
  <style type="text/css" id="style817">
	.st0{fill:#FFFFFF;}
	.st1{fill:none;}
	.st2{fill:#3E5389;}
</style>
</svg>
